<mxfile host="65bd71144e">
    <diagram id="pIaEtrtLPv3HG8r1JEND" name="Page-1">
        <mxGraphModel dx="551" dy="429" grid="1" gridSize="10" guides="1" tooltips="1" connect="1" arrows="1" fold="1" page="1" pageScale="1" pageWidth="850" pageHeight="1100" math="0" shadow="0">
            <root>
                <mxCell id="0"/>
                <mxCell id="1" parent="0"/>
                <mxCell id="2" value="" style="rounded=0;whiteSpace=wrap;html=1;" parent="1" vertex="1">
                    <mxGeometry x="80" y="80" width="400" height="300" as="geometry"/>
                </mxCell>
                <mxCell id="3" value="&lt;span style=&quot;color: rgb(255 , 255 , 255) ; font-family: &amp;#34;roboto&amp;#34; , &amp;#34;helvetica&amp;#34; , &amp;#34;arial&amp;#34; , sans-serif ; font-size: 20px ; letter-spacing: 0.4px&quot;&gt;.·:*¨¨¨* ≈☆≈☆≈☆≈☆≈☆≈ *¨¨¨*:·.&lt;/span&gt;" style="rounded=0;whiteSpace=wrap;html=1;" parent="1" vertex="1">
                    <mxGeometry x="80" y="80" width="400" height="40" as="geometry"/>
                </mxCell>
                <mxCell id="6" value="Calculate" style="labelPosition=center;verticalLabelPosition=middle;align=center;html=1;shape=mxgraph.basic.button;dx=10;" parent="1" vertex="1">
                    <mxGeometry x="90" y="240" width="100" height="40" as="geometry"/>
                </mxCell>
                <mxCell id="7" value="Do you get a disscount?" style="text;strokeColor=none;fillColor=none;html=1;fontSize=24;fontStyle=1;verticalAlign=middle;align=center;labelBackgroundColor=none;" vertex="1" parent="1">
                    <mxGeometry x="180" y="130" width="100" height="40" as="geometry"/>
                </mxCell>
                <mxCell id="8" value="Enter your current age and the current date for results:" style="text;html=1;strokeColor=none;fillColor=none;align=center;verticalAlign=middle;whiteSpace=wrap;rounded=0;labelBackgroundColor=none;" vertex="1" parent="1">
                    <mxGeometry x="80" y="170" width="310" height="30" as="geometry"/>
                </mxCell>
                <mxCell id="10" value="Age" style="rounded=1;arcSize=9;fillColor=#ffffff;strokeColor=#4C9AFF;html=1;strokeWidth=2;spacingLeft=30;fontColor=#000000;align=left;labelBackgroundColor=none;" vertex="1" parent="1">
                    <mxGeometry x="90" y="200" width="100" height="23" as="geometry"/>
                </mxCell>
                <mxCell id="11" value="" style="shape=step;whiteSpace=wrap;html=1;rounded=0;strokeColor=none;strokeWidth=2;fillColor=#0A1E43;gradientColor=none;fontFamily=Verdana;fontSize=14;fontColor=#000000;align=left;direction=south;size=0.65;labelBackgroundColor=none;" vertex="1" parent="10">
                    <mxGeometry x="1" y="0.5" width="10" height="7" relative="1" as="geometry">
                        <mxPoint x="-24" y="-3" as="offset"/>
                    </mxGeometry>
                </mxCell>
                <mxCell id="16" value="Day" style="rounded=1;arcSize=9;fillColor=#ffffff;strokeColor=#4C9AFF;html=1;strokeWidth=2;spacingLeft=30;fontColor=#000000;align=left;labelBackgroundColor=none;" vertex="1" parent="1">
                    <mxGeometry x="210" y="200" width="100" height="23" as="geometry"/>
                </mxCell>
                <mxCell id="17" value="" style="shape=step;whiteSpace=wrap;html=1;rounded=0;strokeColor=none;strokeWidth=2;fillColor=#0A1E43;gradientColor=none;fontFamily=Verdana;fontSize=14;fontColor=#000000;align=left;direction=south;size=0.65;labelBackgroundColor=none;" vertex="1" parent="16">
                    <mxGeometry x="1" y="0.5" width="10" height="7" relative="1" as="geometry">
                        <mxPoint x="-24" y="-3" as="offset"/>
                    </mxGeometry>
                </mxCell>
            </root>
        </mxGraphModel>
    </diagram>
    <diagram name="Copy of Page-1" id="9EBrL0dQtTeMVPST7RZc">
        <mxGraphModel dx="551" dy="429" grid="1" gridSize="10" guides="1" tooltips="1" connect="1" arrows="1" fold="1" page="1" pageScale="1" pageWidth="850" pageHeight="1100" math="0" shadow="0">
            <root>
                <mxCell id="2uu8_vLY5-6zJAVEjU27-0"/>
                <mxCell id="2uu8_vLY5-6zJAVEjU27-1" parent="2uu8_vLY5-6zJAVEjU27-0"/>
                <mxCell id="2uu8_vLY5-6zJAVEjU27-2" value="" style="rounded=0;whiteSpace=wrap;html=1;" vertex="1" parent="2uu8_vLY5-6zJAVEjU27-1">
                    <mxGeometry x="80" y="80" width="400" height="300" as="geometry"/>
                </mxCell>
                <mxCell id="2uu8_vLY5-6zJAVEjU27-3" value="&lt;span style=&quot;color: rgb(255 , 255 , 255) ; font-family: &amp;#34;roboto&amp;#34; , &amp;#34;helvetica&amp;#34; , &amp;#34;arial&amp;#34; , sans-serif ; font-size: 20px ; letter-spacing: 0.4px&quot;&gt;.·:*¨¨¨* ≈☆≈☆≈☆≈☆≈☆≈ *¨¨¨*:·.&lt;/span&gt;" style="rounded=0;whiteSpace=wrap;html=1;" vertex="1" parent="2uu8_vLY5-6zJAVEjU27-1">
                    <mxGeometry x="80" y="80" width="400" height="40" as="geometry"/>
                </mxCell>
                <mxCell id="2uu8_vLY5-6zJAVEjU27-4" value="Calculate" style="labelPosition=center;verticalLabelPosition=middle;align=center;html=1;shape=mxgraph.basic.button;dx=10;" vertex="1" parent="2uu8_vLY5-6zJAVEjU27-1">
                    <mxGeometry x="90" y="240" width="100" height="40" as="geometry"/>
                </mxCell>
                <mxCell id="2uu8_vLY5-6zJAVEjU27-5" value="Do you get a disscount?" style="text;strokeColor=none;fillColor=none;html=1;fontSize=24;fontStyle=1;verticalAlign=middle;align=center;labelBackgroundColor=none;" vertex="1" parent="2uu8_vLY5-6zJAVEjU27-1">
                    <mxGeometry x="180" y="130" width="100" height="40" as="geometry"/>
                </mxCell>
                <mxCell id="2uu8_vLY5-6zJAVEjU27-6" value="Enter your current age and the current date for results:" style="text;html=1;strokeColor=none;fillColor=none;align=center;verticalAlign=middle;whiteSpace=wrap;rounded=0;labelBackgroundColor=none;" vertex="1" parent="2uu8_vLY5-6zJAVEjU27-1">
                    <mxGeometry x="80" y="170" width="310" height="30" as="geometry"/>
                </mxCell>
                <mxCell id="2uu8_vLY5-6zJAVEjU27-8" value="13" style="rounded=1;arcSize=9;fillColor=#ffffff;strokeColor=#4C9AFF;html=1;strokeWidth=2;spacingLeft=30;fontColor=#000000;align=left;labelBackgroundColor=none;" vertex="1" parent="2uu8_vLY5-6zJAVEjU27-1">
                    <mxGeometry x="90" y="200" width="100" height="23" as="geometry"/>
                </mxCell>
                <mxCell id="2uu8_vLY5-6zJAVEjU27-9" value="" style="shape=step;whiteSpace=wrap;html=1;rounded=0;strokeColor=none;strokeWidth=2;fillColor=#0A1E43;gradientColor=none;fontFamily=Verdana;fontSize=14;fontColor=#000000;align=left;direction=south;size=0.65;labelBackgroundColor=none;" vertex="1" parent="2uu8_vLY5-6zJAVEjU27-8">
                    <mxGeometry x="1" y="0.5" width="10" height="7" relative="1" as="geometry">
                        <mxPoint x="-24" y="-3" as="offset"/>
                    </mxGeometry>
                </mxCell>
                <mxCell id="2uu8_vLY5-6zJAVEjU27-10" value="Thursday" style="rounded=1;arcSize=9;fillColor=#ffffff;strokeColor=#4C9AFF;html=1;strokeWidth=2;spacingLeft=30;fontColor=#000000;align=left;labelBackgroundColor=none;" vertex="1" parent="2uu8_vLY5-6zJAVEjU27-1">
                    <mxGeometry x="210" y="200" width="120" height="23" as="geometry"/>
                </mxCell>
                <mxCell id="2uu8_vLY5-6zJAVEjU27-11" value="" style="shape=step;whiteSpace=wrap;html=1;rounded=0;strokeColor=none;strokeWidth=2;fillColor=#0A1E43;gradientColor=none;fontFamily=Verdana;fontSize=14;fontColor=#000000;align=left;direction=south;size=0.65;labelBackgroundColor=none;" vertex="1" parent="2uu8_vLY5-6zJAVEjU27-10">
                    <mxGeometry x="1" y="0.5" width="10" height="7" relative="1" as="geometry">
                        <mxPoint x="-24" y="-3" as="offset"/>
                    </mxGeometry>
                </mxCell>
                <mxCell id="2uu8_vLY5-6zJAVEjU27-12" value="You get the discount!&amp;nbsp; :)" style="text;html=1;strokeColor=none;fillColor=none;align=center;verticalAlign=middle;whiteSpace=wrap;rounded=0;labelBackgroundColor=none;" vertex="1" parent="2uu8_vLY5-6zJAVEjU27-1">
                    <mxGeometry x="180" y="240" width="180" height="30" as="geometry"/>
                </mxCell>
            </root>
        </mxGraphModel>
    </diagram>
    <diagram name="Copy of Page-1" id="nZu8lJkP9LEiXYIiAynN">
        <mxGraphModel dx="551" dy="429" grid="1" gridSize="10" guides="1" tooltips="1" connect="1" arrows="1" fold="1" page="1" pageScale="1" pageWidth="850" pageHeight="1100" math="0" shadow="0">
            <root>
                <mxCell id="5szy5yhhmmWL63SQMbno-0"/>
                <mxCell id="5szy5yhhmmWL63SQMbno-1" parent="5szy5yhhmmWL63SQMbno-0"/>
                <mxCell id="5szy5yhhmmWL63SQMbno-2" value="" style="rounded=0;whiteSpace=wrap;html=1;" vertex="1" parent="5szy5yhhmmWL63SQMbno-1">
                    <mxGeometry x="80" y="80" width="400" height="300" as="geometry"/>
                </mxCell>
                <mxCell id="5szy5yhhmmWL63SQMbno-3" value="&lt;span style=&quot;color: rgb(255 , 255 , 255) ; font-family: &amp;#34;roboto&amp;#34; , &amp;#34;helvetica&amp;#34; , &amp;#34;arial&amp;#34; , sans-serif ; font-size: 20px ; letter-spacing: 0.4px&quot;&gt;.·:*¨¨¨* ≈☆≈☆≈☆≈☆≈☆≈ *¨¨¨*:·.&lt;/span&gt;" style="rounded=0;whiteSpace=wrap;html=1;" vertex="1" parent="5szy5yhhmmWL63SQMbno-1">
                    <mxGeometry x="80" y="80" width="400" height="40" as="geometry"/>
                </mxCell>
                <mxCell id="5szy5yhhmmWL63SQMbno-4" value="Calculate" style="labelPosition=center;verticalLabelPosition=middle;align=center;html=1;shape=mxgraph.basic.button;dx=10;" vertex="1" parent="5szy5yhhmmWL63SQMbno-1">
                    <mxGeometry x="90" y="240" width="100" height="40" as="geometry"/>
                </mxCell>
                <mxCell id="5szy5yhhmmWL63SQMbno-5" value="Do you get a disscount?" style="text;strokeColor=none;fillColor=none;html=1;fontSize=24;fontStyle=1;verticalAlign=middle;align=center;labelBackgroundColor=none;" vertex="1" parent="5szy5yhhmmWL63SQMbno-1">
                    <mxGeometry x="180" y="130" width="100" height="40" as="geometry"/>
                </mxCell>
                <mxCell id="5szy5yhhmmWL63SQMbno-6" value="Enter your current age and the current date for results:" style="text;html=1;strokeColor=none;fillColor=none;align=center;verticalAlign=middle;whiteSpace=wrap;rounded=0;labelBackgroundColor=none;" vertex="1" parent="5szy5yhhmmWL63SQMbno-1">
                    <mxGeometry x="80" y="170" width="310" height="30" as="geometry"/>
                </mxCell>
                <mxCell id="5szy5yhhmmWL63SQMbno-8" value="7" style="rounded=1;arcSize=9;fillColor=#ffffff;strokeColor=#4C9AFF;html=1;strokeWidth=2;spacingLeft=30;fontColor=#000000;align=left;labelBackgroundColor=none;" vertex="1" parent="5szy5yhhmmWL63SQMbno-1">
                    <mxGeometry x="90" y="200" width="100" height="23" as="geometry"/>
                </mxCell>
                <mxCell id="5szy5yhhmmWL63SQMbno-9" value="" style="shape=step;whiteSpace=wrap;html=1;rounded=0;strokeColor=none;strokeWidth=2;fillColor=#0A1E43;gradientColor=none;fontFamily=Verdana;fontSize=14;fontColor=#000000;align=left;direction=south;size=0.65;labelBackgroundColor=none;" vertex="1" parent="5szy5yhhmmWL63SQMbno-8">
                    <mxGeometry x="1" y="0.5" width="10" height="7" relative="1" as="geometry">
                        <mxPoint x="-24" y="-3" as="offset"/>
                    </mxGeometry>
                </mxCell>
                <mxCell id="5szy5yhhmmWL63SQMbno-10" value="Friday" style="rounded=1;arcSize=9;fillColor=#ffffff;strokeColor=#4C9AFF;html=1;strokeWidth=2;spacingLeft=30;fontColor=#000000;align=left;labelBackgroundColor=none;" vertex="1" parent="5szy5yhhmmWL63SQMbno-1">
                    <mxGeometry x="210" y="200" width="100" height="23" as="geometry"/>
                </mxCell>
                <mxCell id="5szy5yhhmmWL63SQMbno-11" value="" style="shape=step;whiteSpace=wrap;html=1;rounded=0;strokeColor=none;strokeWidth=2;fillColor=#0A1E43;gradientColor=none;fontFamily=Verdana;fontSize=14;fontColor=#000000;align=left;direction=south;size=0.65;labelBackgroundColor=none;" vertex="1" parent="5szy5yhhmmWL63SQMbno-10">
                    <mxGeometry x="1" y="0.5" width="10" height="7" relative="1" as="geometry">
                        <mxPoint x="-24" y="-3" as="offset"/>
                    </mxGeometry>
                </mxCell>
                <mxCell id="5szy5yhhmmWL63SQMbno-12" value="Sorry, you must pay regular pricing :(" style="text;html=1;strokeColor=none;fillColor=none;align=center;verticalAlign=middle;whiteSpace=wrap;rounded=0;labelBackgroundColor=none;" vertex="1" parent="5szy5yhhmmWL63SQMbno-1">
                    <mxGeometry x="200" y="245" width="140" height="30" as="geometry"/>
                </mxCell>
            </root>
        </mxGraphModel>
    </diagram>
</mxfile>